<?xml version="1.0" standalone="no"?>
<!DOCTYPE svg PUBLIC "-//W3C//DTD SVG 20010904//EN"
 "http://www.w3.org/TR/2001/REC-SVG-20010904/DTD/svg10.dtd">
<svg version="1.0" xmlns="http://www.w3.org/2000/svg"
 width="751.000000pt" height="751.000000pt" viewBox="0 0 751.000000 751.000000"
 preserveAspectRatio="xMidYMid meet">
<metadata>
Created by potrace 1.14, written by Peter Selinger 2001-2017
</metadata>
<g transform="translate(0.000000,751.000000) scale(0.100000,-0.100000)"
fill="#000000" stroke="none">
<path d="M3455 7489 c-38 -4 -92 -10 -120 -13 -217 -23 -521 -87 -685 -142
-25 -9 -52 -17 -60 -19 -25 -5 -241 -86 -300 -112 -30 -14 -71 -31 -90 -40
-180 -80 -546 -289 -618 -353 -9 -8 -28 -22 -42 -31 -22 -14 -67 -49 -176
-137 -122 -98 -342 -312 -445 -433 -88 -104 -100 -118 -134 -164 -16 -22 -32
-42 -36 -45 -14 -12 -129 -181 -129 -189 0 -5 -4 -11 -8 -13 -11 -4 -164 -262
-181 -305 -8 -18 -17 -33 -22 -33 -5 0 -9 -4 -9 -10 0 -5 -15 -42 -34 -82 -60
-128 -86 -190 -86 -204 0 -8 -5 -14 -12 -14 -6 0 -9 -3 -5 -6 3 -3 -3 -26 -14
-50 -49 -115 -150 -458 -173 -589 -3 -16 -8 -41 -11 -55 -3 -14 -8 -41 -11
-60 -3 -19 -7 -46 -10 -60 -2 -14 -7 -47 -10 -75 -3 -27 -7 -61 -10 -75 -26
-152 -26 -690 1 -850 2 -14 6 -47 10 -75 29 -240 118 -592 213 -840 95 -249
235 -516 396 -755 61 -92 160 -225 176 -240 3 -3 16 -18 28 -34 82 -107 322
-355 437 -451 32 -27 66 -57 75 -65 9 -8 29 -24 44 -35 16 -11 36 -27 45 -36
26 -25 273 -196 303 -210 16 -7 28 -16 28 -21 0 -4 5 -8 10 -8 6 0 29 -12 53
-27 67 -43 355 -193 370 -193 3 0 26 -10 53 -22 27 -12 51 -23 54 -23 3 -1 23
-9 45 -19 47 -21 382 -133 417 -140 12 -2 50 -11 83 -19 51 -13 154 -35 255
-53 14 -2 36 -7 50 -9 41 -8 138 -19 270 -32 107 -10 515 -10 635 0 77 6 249
30 385 53 110 18 459 112 502 135 10 5 23 9 29 9 14 0 217 80 309 122 180 83
434 222 517 284 17 13 35 24 38 24 4 0 29 17 56 38 26 20 82 62 123 92 42 30
76 58 76 63 0 4 5 7 10 7 11 0 51 33 106 87 18 18 36 33 39 33 9 0 284 278
330 334 22 27 47 57 55 66 8 10 22 27 30 37 78 94 280 382 280 399 0 4 6 15
14 23 50 59 238 446 302 624 74 205 151 482 169 612 3 22 8 46 10 53 3 7 7 34
10 60 4 26 8 58 11 72 2 14 6 48 9 75 3 28 8 66 11 85 9 62 12 553 3 635 -5
44 -11 103 -14 130 -12 121 -18 160 -51 324 -20 96 -40 183 -45 193 -5 10 -8
18 -5 18 5 0 -44 165 -76 255 -88 252 -200 495 -323 697 -31 51 -61 102 -68
113 -7 11 -24 36 -39 56 -16 20 -28 40 -28 44 0 13 -201 270 -284 364 -129
144 -382 380 -511 476 -22 16 -42 32 -45 36 -3 3 -48 34 -100 70 -52 35 -96
67 -98 72 -2 4 -8 7 -13 7 -4 0 -40 20 -78 45 -38 25 -72 45 -75 45 -4 0 -25
12 -48 26 -45 29 -194 105 -303 154 -228 105 -556 210 -790 254 -166 31 -223
40 -315 51 -30 3 -77 8 -105 11 -79 9 -553 11 -630 3z"/>
</g>
</svg>
